<svg xmlns="http://www.w3.org/2000/svg" xmlns:xlink="http://www.w3.org/1999/xlink" xmlns:lucid="lucid" width="1617.63" height="480"><g transform="translate(-162.36785496476364 -260)" lucid:page-tab-id="0_0"><path d="M1460 286a6 6 0 0 1 6-6h248a6 6 0 0 1 6 6v428a6 6 0 0 1-6 6h-248a6 6 0 0 1-6-6z" stroke="#3a414a" fill="#f2f2ff"/><path d="M1500 315.68h240v60h-240z" fill="none"/><use xlink:href="#a" transform="matrix(1,0,0,1,1500,315.6804118560767) translate(77.85185185185185 35.33333333333333)"/><path d="M422.37 345.68c0 22.1-17.9 40-40 40s-40-17.9-40-40 17.9-40 40-40 40 17.9 40 40z" stroke="#000" fill="#ffe342"/><use xlink:href="#b" transform="matrix(1,0,0,1,347.36785496476364,310.6804118560767) translate(26.97530864197531 40.611111111111114)"/><path d="M262.37 505.68c0 22.1-17.9 40-40 40s-40-17.9-40-40 17.9-40 40-40 40 17.9 40 40z" stroke="#000" fill="#ffe342"/><use xlink:href="#c" transform="matrix(1,0,0,1,187.36785496476364,470.6804118560767) translate(26.97530864197531 40.611111111111114)"/><path d="M422.37 665.68c0 22.1-17.9 40-40 40s-40-17.9-40-40 17.9-40 40-40 40 17.9 40 40z" stroke="#000" fill="#ff8f8f"/><use xlink:href="#d" transform="matrix(1,0,0,1,347.36785496476364,630.6804118560767) translate(26.97530864197531 40.611111111111114)"/><path d="M582.37 505.68c0 22.1-17.9 40-40 40s-40-17.9-40-40 17.9-40 40-40 40 17.9 40 40z" stroke="#000" fill="#ff8f8f"/><use xlink:href="#e" transform="matrix(1,0,0,1,507.36785496476364,470.6804118560767) translate(26.97530864197531 40.611111111111114)"/><path d="M742.37 345.68c0 22.1-17.9 40-40 40s-40-17.9-40-40 17.9-40 40-40 40 17.9 40 40z" stroke="#000" fill="#ffe342"/><use xlink:href="#f" transform="matrix(1,0,0,1,667.3678549647636,310.6804118560767) translate(26.97530864197531 40.611111111111114)"/><path d="M902.37 505.68c0 22.1-17.9 40-40 40s-40-17.9-40-40 17.9-40 40-40 40 17.9 40 40z" stroke="#000" fill="#ff8f8f"/><use xlink:href="#g" transform="matrix(1,0,0,1,827.3678549647636,470.6804118560767) translate(26.97530864197531 40.611111111111114)"/><path d="M742.37 668.8c0 22.08-17.9 40-40 40s-40-17.92-40-40c0-22.1 17.9-40 40-40s40 17.9 40 40z" stroke="#000" fill="#ff8f8f"/><use xlink:href="#h" transform="matrix(1,0,0,1,667.3678549647638,633.7915229671887) translate(26.97530864197531 40.611111111111114)"/><path d="M1062.37 345.68c0 22.1-17.9 40-40 40s-40-17.9-40-40 17.9-40 40-40 40 17.9 40 40z" stroke="#000" fill="#ffe342"/><use xlink:href="#i" transform="matrix(1,0,0,1,987.3678549647636,310.6804118560767) translate(26.97530864197531 40.611111111111114)"/><path d="M1222.37 505.68c0 22.1-17.9 40-40 40s-40-17.9-40-40 17.9-40 40-40 40 17.9 40 40z" stroke="#000" fill="#54c45e"/><use xlink:href="#j" transform="matrix(1,0,0,1,1147.3678549647636,470.6804118560767) translate(26.97530864197531 40.611111111111114)"/><path d="M1062.37 668.8c0 22.08-17.9 40-40 40s-40-17.92-40-40c0-22.1 17.9-40 40-40s40 17.9 40 40z" stroke="#000" fill="#ff8f8f"/><use xlink:href="#k" transform="matrix(1,0,0,1,987.3678549647636,633.7915229671887) translate(26.97530864197531 40.611111111111114)"/><path d="M1382.37 668.8c0 22.08-17.9 40-40 40s-40-17.92-40-40c0-22.1 17.9-40 40-40s40 17.9 40 40z" stroke="#000" fill="#ff8f8f"/><use xlink:href="#l" transform="matrix(1,0,0,1,1307.3678549647636,633.7915229671887) translate(18.950617283950617 40.611111111111114)"/><path d="M423.37 345.68h222.1" stroke="#000" fill="none"/><path d="M423.38 346.18h-.54l.03-.5-.02-.5h.53z" stroke="#000" stroke-width=".05"/><path d="M660.25 345.68l-14.27 4.64v-9.27z" stroke="#000"/><path d="M743.37 345.68h222.1" stroke="#000" fill="none"/><path d="M743.38 346.18h-.54l.03-.5-.02-.5h.53z" stroke="#000" stroke-width=".05"/><path d="M980.25 345.68l-14.27 4.64v-9.27z" stroke="#000"/><path d="M1063.22 346.03l107.56 107.56" stroke="#000" fill="none"/><path d="M1063.58 345.7l-.7.7-.05-.05.04-.66-.03-.75z" stroke="#000" stroke-width=".05"/><path d="M1181.22 464.04l-13.36-6.8 6.55-6.57z" stroke="#000"/><path d="M263.37 505.68h222.1" stroke="#000" fill="none"/><path d="M263.38 506.18h-.54l.03-.5-.02-.5h.53z" stroke="#000" stroke-width=".05"/><path d="M500.25 505.68l-14.27 4.64v-9.27z" stroke="#000"/><path d="M222.72 464.83l107.56-107.56" stroke="#000" fill="none"/><path d="M223.08 465.17l-.05.05-.66-.04-.74.03.75-.74z" stroke="#000" stroke-width=".05"/><path d="M340.72 346.82l-6.8 13.37-6.56-6.57z" stroke="#000"/><path d="M542.72 464.83l107.56-107.56" stroke="#000" fill="none"/><path d="M543.08 465.17l-.05.05-.66-.04-.74.03.75-.74z" stroke="#000" stroke-width=".05"/><path d="M660.72 346.82l-6.8 13.37-6.56-6.57z" stroke="#000"/><path d="M423.37 665.68h222.3" stroke="#000" fill="none"/><path d="M423.38 666.18h-.54l.03-.5-.02-.5h.53z" stroke="#000" stroke-width=".05"/><path d="M660.44 665.68l-14.26 4.64v-9.27z" stroke="#000"/><path d="M583.1 506.13l71.63 147.92" stroke="#000" fill="none"/><path d="M583.54 505.92l-.7.35.03-.58-.05-1.26z" stroke="#000" stroke-width=".05"/><path d="M661.16 667.34l-10.4-10.82 8.36-4.04z" stroke="#000"/><path d="M743.37 668.8h222.1" stroke="#000" fill="none"/><path d="M743.38 669.3h-.54l.03-.5-.02-.5h.53z" stroke="#000" stroke-width=".05"/><path d="M980.25 668.8l-14.27 4.63v-9.27z" stroke="#000"/><path d="M702.72 627.94L810.4 520.26" stroke="#000" fill="none"/><path d="M703.08 628.28l-.05.05-.66-.04-.74.02.75-.74z" stroke="#000" stroke-width=".05"/><path d="M820.84 509.82l-6.8 13.37-6.57-6.57z" stroke="#000"/><path d="M903.1 506.13l71.63 147.92" stroke="#000" fill="none"/><path d="M903.54 505.92l-.7.35.03-.58-.05-1.26z" stroke="#000" stroke-width=".05"/><path d="M981.16 667.34l-10.4-10.82 8.36-4.04z" stroke="#000"/><path d="M903.37 505.68h222.1" stroke="#000" fill="none"/><path d="M903.38 506.18h-.54l.03-.5-.02-.5h.53z" stroke="#000" stroke-width=".05"/><path d="M1140.25 505.68l-14.27 4.64v-9.27z" stroke="#000"/><path d="M743.1 346.13L814.6 491" stroke="#000" fill="none"/><path d="M743.54 345.92l-.7.35.03-.58-.04-1.24z" stroke="#000" stroke-width=".05"/><path d="M821.15 504.23l-10.47-10.74 8.3-4.1z" stroke="#000"/><path d="M1063.37 668.8h222.1" stroke="#000" fill="none"/><path d="M1063.38 669.3h-.54l.03-.5-.02-.5h.53z" stroke="#000" stroke-width=".05"/><path d="M1300.25 668.8l-14.27 4.63v-9.27z" stroke="#000"/><path d="M1560 505.68c0 22.1-17.9 40-40 40s-40-17.9-40-40 17.9-40 40-40 40 17.9 40 40z" stroke="#000" fill="#ffe342"/><path d="M1560 668.8c0 22.08-17.9 40-40 40s-40-17.92-40-40c0-22.1 17.9-40 40-40s40 17.9 40 40z" stroke="#000" fill="#ff8f8f"/><path d="M1560 342.57c0 22.1-17.9 40-40 40s-40-17.9-40-40 17.9-40 40-40 40 17.9 40 40z" stroke="#000" fill="#54c45e"/><path d="M1500 475.68h240v60h-240z" fill="none"/><use xlink:href="#m" transform="matrix(1,0,0,1,1500,475.6804118560767) translate(73.44444444444444 35.33333333333333)"/><path d="M1520 635.68h240v60h-240z" fill="none"/><use xlink:href="#n" transform="matrix(1,0,0,1,1520,635.6804118560767) translate(53.51851851851852 35.33333333333333)"/><use xlink:href="#o" transform="matrix(1,0,0,1,1520,635.6804118560767) translate(102.18518518518519 35.33333333333333)"/><defs><path fill="#3a414a" d="M128 0H69L1-190h53L99-40l48-150h52" id="p"/><path fill="#3a414a" d="M25-224v-37h50v37H25zM25 0v-190h50V0H25" id="q"/><path fill="#3a414a" d="M137-138c1-29-70-34-71-4 15 46 118 7 119 86 1 83-164 76-172 9l43-7c4 19 20 25 44 25 33 8 57-30 24-41C81-84 22-81 20-136c-2-80 154-74 161-7" id="r"/><path fill="#3a414a" d="M115-3C79 11 28 4 28-45v-112H4v-33h27l15-45h31v45h36v33H77v99c-1 23 16 31 38 25v30" id="s"/><path fill="#3a414a" d="M185-48c-13 30-37 53-82 52C43 2 14-33 14-96s30-98 90-98c62 0 83 45 84 108H66c0 31 8 55 39 56 18 0 30-7 34-22zm-45-69c5-46-57-63-70-21-2 6-4 13-4 21h74" id="t"/><path fill="#3a414a" d="M88-194c31-1 46 15 58 34l-1-101h50l1 261h-48c-2-10 0-23-3-31C134-8 116 4 84 4 32 4 16-41 15-95c0-56 19-97 73-99zm17 164c33 0 40-30 41-66 1-37-9-64-41-64s-38 30-39 65c0 43 13 65 39 65" id="u"/><g id="a"><use transform="matrix(0.07407407407407407,0,0,0.07407407407407407,0,0)" xlink:href="#p"/><use transform="matrix(0.07407407407407407,0,0,0.07407407407407407,14.814814814814813,0)" xlink:href="#q"/><use transform="matrix(0.07407407407407407,0,0,0.07407407407407407,22.22222222222222,0)" xlink:href="#r"/><use transform="matrix(0.07407407407407407,0,0,0.07407407407407407,37.03703703703704,0)" xlink:href="#q"/><use transform="matrix(0.07407407407407407,0,0,0.07407407407407407,44.44444444444444,0)" xlink:href="#s"/><use transform="matrix(0.07407407407407407,0,0,0.07407407407407407,53.25925925925926,0)" xlink:href="#t"/><use transform="matrix(0.07407407407407407,0,0,0.07407407407407407,68.07407407407408,0)" xlink:href="#u"/></g><path fill="#e81313" d="M101-251c68 0 84 54 84 127C185-50 166 4 99 4S15-52 14-124c-1-75 17-127 87-127zm-1 216c37-5 36-46 36-89s4-89-36-89c-39 0-36 45-36 89 0 43-3 85 36 89" id="v"/><use transform="matrix(0.08024691358024691,0,0,0.08024691358024691,0,0)" xlink:href="#v" id="b"/><path fill="#e81313" d="M23 0v-37h61v-169l-59 37v-38l62-41h46v211h57V0H23" id="w"/><use transform="matrix(0.08024691358024691,0,0,0.08024691358024691,0,0)" xlink:href="#w" id="c"/><path fill="#e81313" d="M182-182c0 78-84 86-111 141h115V0H12c-6-101 99-100 120-180 1-22-12-31-33-32-23 0-32 14-35 34l-49-3c5-45 32-70 84-70 51 0 83 22 83 69" id="x"/><use transform="matrix(0.08024691358024691,0,0,0.08024691358024691,0,0)" xlink:href="#x" id="d"/><path fill="#e81313" d="M165-50V0h-47v-50H5v-38l105-160h55v161h33v37h-33zm-47-37l2-116L46-87h72" id="y"/><use transform="matrix(0.08024691358024691,0,0,0.08024691358024691,0,0)" xlink:href="#y" id="e"/><path fill="#e81313" d="M128-127c34 4 56 21 59 58 7 91-148 94-172 28-4-9-6-17-7-26l51-5c1 24 16 35 40 36 23 0 39-12 38-36-1-31-31-36-65-34v-40c32 2 59-3 59-33 0-20-13-33-34-33s-33 13-35 32l-50-3c6-44 37-68 86-68 50 0 83 20 83 66 0 35-22 52-53 58" id="z"/><use transform="matrix(0.08024691358024691,0,0,0.08024691358024691,0,0)" xlink:href="#z" id="f"/><path fill="#e81313" d="M52 0c1-96 47-148 87-207H15v-41h169v40c-36 62-79 113-81 208H52" id="A"/><use transform="matrix(0.08024691358024691,0,0,0.08024691358024691,0,0)" xlink:href="#A" id="g"/><path fill="#e81313" d="M139-81c0-46-55-55-73-27H18l9-140h149v37H72l-4 63c44-38 133-4 122 66C201 21 21 35 11-62l49-4c5 18 15 30 39 30 26 0 40-18 40-45" id="B"/><use transform="matrix(0.08024691358024691,0,0,0.08024691358024691,0,0)" xlink:href="#B" id="h"/><path fill="#e81313" d="M115-159c48 0 72 30 72 78 0 54-30 85-83 85-64 0-91-50-91-122 0-98 58-163 141-120 15 8 21 24 27 44l-47 6c-5-31-48-31-61-4-7 14-11 33-11 60 9-17 28-27 53-27zM102-35c24 0 36-20 36-45s-11-43-37-43c-23 0-36 14-36 38 0 27 11 50 37 50" id="C"/><use transform="matrix(0.08024691358024691,0,0,0.08024691358024691,0,0)" xlink:href="#C" id="i"/><path fill="#e81313" d="M99-251c69 0 84 53 88 123 5 99-61 162-144 118-15-8-21-25-26-45l46-6c4 31 50 33 63 7 7-15 12-36 12-60-9 18-29 28-54 28-48 0-72-32-72-82 0-55 31-83 87-83zm-1 128c24 0 37-16 37-39 0-27-10-51-37-51-25 0-35 19-35 45 0 25 10 45 35 45" id="D"/><use transform="matrix(0.08024691358024691,0,0,0.08024691358024691,0,0)" xlink:href="#D" id="j"/><path fill="#e81313" d="M138-131c27 9 52 24 51 61 0 53-36 74-89 74S11-19 11-69c0-35 22-54 51-61-78-25-46-121 38-121 51 0 83 19 83 66 0 30-18 49-45 54zm-38-16c24 0 32-13 32-36 1-23-11-34-32-34-22 0-33 12-32 34 0 22 9 36 32 36zm1 116c27 0 37-17 37-43 0-25-13-39-39-39-24 0-37 15-37 40 0 27 11 42 39 42" id="E"/><use transform="matrix(0.08024691358024691,0,0,0.08024691358024691,0,0)" xlink:href="#E" id="k"/><g id="l"><use transform="matrix(0.08024691358024691,0,0,0.08024691358024691,0,0)" xlink:href="#w"/><use transform="matrix(0.08024691358024691,0,0,0.08024691358024691,16.049382716049383,0)" xlink:href="#v"/></g><path fill="#3a414a" d="M135-194c87-1 58 113 63 194h-50c-7-57 23-157-34-157-59 0-34 97-39 157H25l-1-190h47c2 12-1 28 3 38 12-26 28-41 61-42" id="F"/><path fill="#3a414a" d="M195-6C206 82 75 100 31 46c-4-6-6-13-8-21l49-6c3 16 16 24 34 25 40 0 42-37 40-79-11 22-30 35-61 35-53 0-70-43-70-97 0-56 18-96 73-97 30 0 46 14 59 34l2-30h47zm-90-29c32 0 41-27 41-63 0-35-9-62-40-62-32 0-39 29-40 63 0 36 9 62 39 62" id="G"/><g id="m"><use transform="matrix(0.07407407407407407,0,0,0.07407407407407407,0,0)" xlink:href="#p"/><use transform="matrix(0.07407407407407407,0,0,0.07407407407407407,14.814814814814813,0)" xlink:href="#q"/><use transform="matrix(0.07407407407407407,0,0,0.07407407407407407,22.22222222222222,0)" xlink:href="#r"/><use transform="matrix(0.07407407407407407,0,0,0.07407407407407407,37.03703703703704,0)" xlink:href="#q"/><use transform="matrix(0.07407407407407407,0,0,0.07407407407407407,44.44444444444444,0)" xlink:href="#s"/><use transform="matrix(0.07407407407407407,0,0,0.07407407407407407,53.25925925925926,0)" xlink:href="#q"/><use transform="matrix(0.07407407407407407,0,0,0.07407407407407407,60.666666666666664,0)" xlink:href="#F"/><use transform="matrix(0.07407407407407407,0,0,0.07407407407407407,76.88888888888889,0)" xlink:href="#G"/></g><path fill="#3a414a" d="M110-194c64 0 96 36 96 99 0 64-35 99-97 99-61 0-95-36-95-99 0-62 34-99 96-99zm-1 164c35 0 45-28 45-65 0-40-10-65-43-65-34 0-45 26-45 65 0 36 10 65 43 65" id="H"/><g id="n"><use transform="matrix(0.07407407407407407,0,0,0.07407407407407407,0,0)" xlink:href="#F"/><use transform="matrix(0.07407407407407407,0,0,0.07407407407407407,16.22222222222222,0)" xlink:href="#H"/><use transform="matrix(0.07407407407407407,0,0,0.07407407407407407,32.44444444444444,0)" xlink:href="#s"/></g><g id="o"><use transform="matrix(0.07407407407407407,0,0,0.07407407407407407,0,0)" xlink:href="#p"/><use transform="matrix(0.07407407407407407,0,0,0.07407407407407407,14.814814814814813,0)" xlink:href="#q"/><use transform="matrix(0.07407407407407407,0,0,0.07407407407407407,22.22222222222222,0)" xlink:href="#r"/><use transform="matrix(0.07407407407407407,0,0,0.07407407407407407,37.03703703703704,0)" xlink:href="#q"/><use transform="matrix(0.07407407407407407,0,0,0.07407407407407407,44.44444444444444,0)" xlink:href="#s"/><use transform="matrix(0.07407407407407407,0,0,0.07407407407407407,53.25925925925926,0)" xlink:href="#t"/><use transform="matrix(0.07407407407407407,0,0,0.07407407407407407,68.07407407407408,0)" xlink:href="#u"/></g></defs></g></svg>