<svg xmlns="http://www.w3.org/2000/svg" xmlns:xlink="http://www.w3.org/1999/xlink" xmlns:lucid="lucid" width="1280" height="520"><g transform="translate(-440 -340)" lucid:page-tab-id="0_0"><path d="M460 366a6 6 0 0 1 6-6h1228a6 6 0 0 1 6 6v468a6 6 0 0 1-6 6H466a6 6 0 0 1-6-6z" stroke="#3a414a" fill="#c3f7c8"/><path d="M720 440c0 22.1-17.9 40-40 40s-40-17.9-40-40 17.9-40 40-40 40 17.9 40 40z" stroke="#3a414a" fill="#fff"/><use xlink:href="#a" transform="matrix(1,0,0,1,645,405) translate(26.97530864197531 40.611111111111114)"/><path d="M560 600c0 22.1-17.9 40-40 40s-40-17.9-40-40 17.9-40 40-40 40 17.9 40 40z" stroke="#3a414a" fill="#fff"/><use xlink:href="#b" transform="matrix(1,0,0,1,485,565) translate(26.97530864197531 40.611111111111114)"/><path d="M720 760c0 22.1-17.9 40-40 40s-40-17.9-40-40 17.9-40 40-40 40 17.9 40 40z" stroke="#3a414a" fill="#fff"/><use xlink:href="#c" transform="matrix(1,0,0,1,645,725) translate(26.97530864197531 40.611111111111114)"/><path d="M880 600c0 22.1-17.9 40-40 40s-40-17.9-40-40 17.9-40 40-40 40 17.9 40 40z" stroke="#3a414a" fill="#fff"/><use xlink:href="#d" transform="matrix(1,0,0,1,805,565) translate(26.97530864197531 40.611111111111114)"/><path d="M1040 440c0 22.1-17.9 40-40 40s-40-17.9-40-40 17.9-40 40-40 40 17.9 40 40z" stroke="#3a414a" fill="#fff"/><use xlink:href="#e" transform="matrix(1,0,0,1,965,405) translate(26.97530864197531 40.611111111111114)"/><path d="M1200 600c0 22.1-17.9 40-40 40s-40-17.9-40-40 17.9-40 40-40 40 17.9 40 40z" stroke="#3a414a" fill="#fff"/><use xlink:href="#f" transform="matrix(1,0,0,1,1125,565) translate(26.97530864197531 40.611111111111114)"/><path d="M1040 763.1c0 22.1-17.9 40-40 40s-40-17.9-40-40c0-22.08 17.9-40 40-40s40 17.92 40 40z" stroke="#3a414a" fill="#fff"/><use xlink:href="#g" transform="matrix(1,0,0,1,965.0000000000001,728.111111111112) translate(26.97530864197531 40.611111111111114)"/><path d="M1360 440c0 22.1-17.9 40-40 40s-40-17.9-40-40 17.9-40 40-40 40 17.9 40 40z" stroke="#3a414a" fill="#fff"/><use xlink:href="#h" transform="matrix(1,0,0,1,1285,405) translate(26.97530864197531 40.611111111111114)"/><path d="M1520 600c0 22.1-17.9 40-40 40s-40-17.9-40-40 17.9-40 40-40 40 17.9 40 40z" stroke="#3a414a" fill="#fff"/><use xlink:href="#i" transform="matrix(1,0,0,1,1445,565) translate(26.97530864197531 40.611111111111114)"/><path d="M1360 763.1c0 22.1-17.9 40-40 40s-40-17.9-40-40c0-22.08 17.9-40 40-40s40 17.92 40 40z" stroke="#3a414a" fill="#fff"/><use xlink:href="#j" transform="matrix(1,0,0,1,1285,728.111111111112) translate(26.97530864197531 40.611111111111114)"/><path d="M1680 763.1c0 22.1-17.9 40-40 40s-40-17.9-40-40c0-22.08 17.9-40 40-40s40 17.92 40 40z" stroke="#3a414a" fill="#fff"/><use xlink:href="#k" transform="matrix(1,0,0,1,1605,728.111111111112) translate(18.950617283950617 40.611111111111114)"/><path d="M723 440h211.64" stroke="#1071e5" stroke-width="5" fill="none"/><path d="M723.06 442.5h-2.7l.14-2.5-.1-2.5h2.66z" stroke="#1071e5" stroke-width=".05" fill="#1071e5"/><path d="M951.4 440l-14.26 4.64v-9.28z" stroke="#1071e5" stroke-width="5" fill="#1071e5"/><path d="M1043 440h211.64" stroke="#1071e5" stroke-width="5" fill="none"/><path d="M1043.06 442.5h-2.7l.14-2.5-.1-2.5h2.66z" stroke="#1071e5" stroke-width=".05" fill="#1071e5"/><path d="M1271.4 440l-14.26 4.64v-9.28z" stroke="#1071e5" stroke-width="5" fill="#1071e5"/><path d="M1362.27 441.77l100.15 100.15" stroke="#1071e5" stroke-width="5" fill="none"/><path d="M1364.08 440.05l-3.53 3.53-.26-.25.2-3.32-.1-2.9-.1-.85z" stroke="#1071e5" stroke-width=".05" fill="#1071e5"/><path d="M1474.28 553.78l-13.37-6.8 6.57-6.57z" stroke="#1071e5" stroke-width="5" fill="#1071e5"/><path d="M563 600h211.64" stroke="#1071e5" stroke-width="5" fill="none"/><path d="M563.06 602.5h-2.7l.14-2.5-.1-2.5h2.66z" stroke="#1071e5" stroke-width=".05" fill="#1071e5"/><path d="M791.4 600l-14.26 4.64v-9.28z" stroke="#1071e5" stroke-width="5" fill="#1071e5"/><path d="M521.77 557.73l100.15-100.15" stroke="#1071e5" stroke-width="5" fill="none"/><path d="M523.58 559.45l-.25.26-3.32-.2-2.9.1-.85.1 3.8-3.78z" stroke="#1071e5" stroke-width=".05" fill="#1071e5"/><path d="M633.78 445.72l-6.8 13.37-6.57-6.57z" stroke="#1071e5" stroke-width="5" fill="#1071e5"/><path d="M841.77 557.73l100.15-100.15" stroke="#1071e5" stroke-width="5" fill="none"/><path d="M843.58 559.45l-.25.26-3.32-.2-2.9.1-.85.1 3.8-3.78z" stroke="#1071e5" stroke-width=".05" fill="#1071e5"/><path d="M953.78 445.72l-6.8 13.37-6.57-6.57z" stroke="#1071e5" stroke-width="5" fill="#1071e5"/><path d="M723 760h211.84" stroke="#1071e5" stroke-width="5" fill="none"/><path d="M723.06 762.5h-2.7l.14-2.5-.1-2.5h2.66z" stroke="#1071e5" stroke-width=".05" fill="#1071e5"/><path d="M951.6 760l-14.26 4.64v-9.28z" stroke="#1071e5" stroke-width="5" fill="#1071e5"/><path d="M881.6 602.25l67.07 138.5" stroke="#1071e5" stroke-width="5" fill="none"/><path d="M883.87 601.22l-3.55 1.72.18-2.93-.1-2.9-.05-.36 1.1-.53z" stroke="#1071e5" stroke-width=".05" fill="#1071e5"/><path d="M955.97 755.83L945.57 745l8.36-4.03z" stroke="#1071e5" stroke-width="5" fill="#1071e5"/><path d="M1041 763.1h222.12" stroke="#3a414a" fill="none"/><path d="M1041 763.6h-.53l.03-.48-.02-.5h.53z" stroke="#3a414a" stroke-width=".05" fill="#3a414a"/><path d="M1277.88 763.1l-14.26 4.65v-9.27z" stroke="#3a414a" fill="#3a414a"/><path d="M1001.77 720.84l100.27-100.27" stroke="#1071e5" stroke-width="5" fill="none"/><path d="M1003.58 722.57l-.25.25-3.32-.2-2.9.1-.85.1 3.8-3.8z" stroke="#1071e5" stroke-width=".05" fill="#1071e5"/><path d="M1113.9 608.72l-6.82 13.36-6.55-6.55z" stroke="#1071e5" stroke-width="5" fill="#1071e5"/><path d="M1200.72 600.45l71.64 147.92" stroke="#3a414a" fill="none"/><path d="M1201.17 600.24l-.7.35.03-.6-.04-1.24z" stroke="#3a414a" stroke-width=".05" fill="#3a414a"/><path d="M1278.8 761.65l-10.4-10.8 8.35-4.05z" stroke="#3a414a" fill="#3a414a"/><path d="M1203 600h211.64" stroke="#1071e5" stroke-width="5" fill="none"/><path d="M1203.06 602.5h-2.7l.14-2.5-.1-2.5h2.66z" stroke="#1071e5" stroke-width=".05" fill="#1071e5"/><path d="M1431.4 600l-14.26 4.64v-9.28z" stroke="#1071e5" stroke-width="5" fill="#1071e5"/><path d="M1041.6 442.24l66.9 135.47" stroke="#1071e5" stroke-width="5" fill="none"/><path d="M1043.88 441.2l-3.56 1.75.18-2.94-.1-2.9-.05-.37 1.06-.53z" stroke="#1071e5" stroke-width=".05" fill="#1071e5"/><path d="M1115.92 592.75L1105.45 582l8.3-4.1z" stroke="#1071e5" stroke-width="5" fill="#1071e5"/><path d="M1361 763.1h222.12" stroke="#3a414a" fill="none"/><path d="M1361 763.6h-.53l.03-.48-.02-.5h.53z" stroke="#3a414a" stroke-width=".05" fill="#3a414a"/><path d="M1597.88 763.1l-14.26 4.65v-9.27z" stroke="#3a414a" fill="#3a414a"/><defs><path fill="#e81313" d="M101-251c68 0 84 54 84 127C185-50 166 4 99 4S15-52 14-124c-1-75 17-127 87-127zm-1 216c37-5 36-46 36-89s4-89-36-89c-39 0-36 45-36 89 0 43-3 85 36 89" id="l"/><use transform="matrix(0.08024691358024691,0,0,0.08024691358024691,0,0)" xlink:href="#l" id="a"/><path fill="#e81313" d="M23 0v-37h61v-169l-59 37v-38l62-41h46v211h57V0H23" id="m"/><use transform="matrix(0.08024691358024691,0,0,0.08024691358024691,0,0)" xlink:href="#m" id="b"/><path fill="#e81313" d="M182-182c0 78-84 86-111 141h115V0H12c-6-101 99-100 120-180 1-22-12-31-33-32-23 0-32 14-35 34l-49-3c5-45 32-70 84-70 51 0 83 22 83 69" id="n"/><use transform="matrix(0.08024691358024691,0,0,0.08024691358024691,0,0)" xlink:href="#n" id="c"/><path fill="#e81313" d="M165-50V0h-47v-50H5v-38l105-160h55v161h33v37h-33zm-47-37l2-116L46-87h72" id="o"/><use transform="matrix(0.08024691358024691,0,0,0.08024691358024691,0,0)" xlink:href="#o" id="d"/><path fill="#e81313" d="M128-127c34 4 56 21 59 58 7 91-148 94-172 28-4-9-6-17-7-26l51-5c1 24 16 35 40 36 23 0 39-12 38-36-1-31-31-36-65-34v-40c32 2 59-3 59-33 0-20-13-33-34-33s-33 13-35 32l-50-3c6-44 37-68 86-68 50 0 83 20 83 66 0 35-22 52-53 58" id="p"/><use transform="matrix(0.08024691358024691,0,0,0.08024691358024691,0,0)" xlink:href="#p" id="e"/><path fill="#e81313" d="M52 0c1-96 47-148 87-207H15v-41h169v40c-36 62-79 113-81 208H52" id="q"/><use transform="matrix(0.08024691358024691,0,0,0.08024691358024691,0,0)" xlink:href="#q" id="f"/><path fill="#e81313" d="M139-81c0-46-55-55-73-27H18l9-140h149v37H72l-4 63c44-38 133-4 122 66C201 21 21 35 11-62l49-4c5 18 15 30 39 30 26 0 40-18 40-45" id="r"/><use transform="matrix(0.08024691358024691,0,0,0.08024691358024691,0,0)" xlink:href="#r" id="g"/><path fill="#e81313" d="M115-159c48 0 72 30 72 78 0 54-30 85-83 85-64 0-91-50-91-122 0-98 58-163 141-120 15 8 21 24 27 44l-47 6c-5-31-48-31-61-4-7 14-11 33-11 60 9-17 28-27 53-27zM102-35c24 0 36-20 36-45s-11-43-37-43c-23 0-36 14-36 38 0 27 11 50 37 50" id="s"/><use transform="matrix(0.08024691358024691,0,0,0.08024691358024691,0,0)" xlink:href="#s" id="h"/><path fill="#e81313" d="M99-251c69 0 84 53 88 123 5 99-61 162-144 118-15-8-21-25-26-45l46-6c4 31 50 33 63 7 7-15 12-36 12-60-9 18-29 28-54 28-48 0-72-32-72-82 0-55 31-83 87-83zm-1 128c24 0 37-16 37-39 0-27-10-51-37-51-25 0-35 19-35 45 0 25 10 45 35 45" id="t"/><use transform="matrix(0.08024691358024691,0,0,0.08024691358024691,0,0)" xlink:href="#t" id="i"/><path fill="#e81313" d="M138-131c27 9 52 24 51 61 0 53-36 74-89 74S11-19 11-69c0-35 22-54 51-61-78-25-46-121 38-121 51 0 83 19 83 66 0 30-18 49-45 54zm-38-16c24 0 32-13 32-36 1-23-11-34-32-34-22 0-33 12-32 34 0 22 9 36 32 36zm1 116c27 0 37-17 37-43 0-25-13-39-39-39-24 0-37 15-37 40 0 27 11 42 39 42" id="u"/><use transform="matrix(0.08024691358024691,0,0,0.08024691358024691,0,0)" xlink:href="#u" id="j"/><g id="k"><use transform="matrix(0.08024691358024691,0,0,0.08024691358024691,0,0)" xlink:href="#m"/><use transform="matrix(0.08024691358024691,0,0,0.08024691358024691,16.049382716049383,0)" xlink:href="#l"/></g></defs></g></svg>