<svg xmlns="http://www.w3.org/2000/svg" xmlns:xlink="http://www.w3.org/1999/xlink" xmlns:lucid="lucid" width="600" height="580"><g transform="translate(-380 -240)" lucid:page-tab-id="0_0"><path d="M720 300c0 22.1-17.9 40-40 40s-40-17.9-40-40 17.9-40 40-40 40 17.9 40 40z" stroke="#3a414a" fill="#fff"/><use xlink:href="#a" transform="matrix(1,0,0,1,645,265) translate(26.358024691358025 40.20138888888889)"/><path d="M560 440c0 22.1-17.9 40-40 40s-40-17.9-40-40 17.9-40 40-40 40 17.9 40 40z" stroke="#3a414a" fill="#54c45e"/><use xlink:href="#b" transform="matrix(1,0,0,1,485,405) translate(26.358024691358025 40.20138888888889)"/><path d="M880 440c0 22.1-17.9 40-40 40s-40-17.9-40-40 17.9-40 40-40 40 17.9 40 40z" stroke="#3a414a" fill="#fff"/><use xlink:href="#c" transform="matrix(1,0,0,1,805,405) translate(26.358024691358025 40.20138888888889)"/><path d="M480 600c0 22.1-17.9 40-40 40s-40-17.9-40-40 17.9-40 40-40 40 17.9 40 40z" stroke="#3a414a" fill="#ffe342"/><use xlink:href="#d" transform="matrix(1,0,0,1,405,565) translate(26.358024691358025 40.20138888888889)"/><path d="M640 600c0 22.1-17.9 40-40 40s-40-17.9-40-40 17.9-40 40-40 40 17.9 40 40z" stroke="#3a414a" fill="#fff"/><use xlink:href="#e" transform="matrix(1,0,0,1,565,565) translate(26.358024691358025 40.20138888888889)"/><path d="M800 604c0 22.1-17.9 40-40 40s-40-17.9-40-40 17.9-40 40-40 40 17.9 40 40z" stroke="#3a414a" fill="#fff"/><use xlink:href="#f" transform="matrix(1,0,0,1,725,569) translate(26.358024691358025 40.20138888888889)"/><path d="M960 604c0 22.1-17.9 40-40 40s-40-17.9-40-40 17.9-40 40-40 40 17.9 40 40z" stroke="#3a414a" fill="#fff"/><use xlink:href="#g" transform="matrix(1,0,0,1,885,569) translate(26.358024691358025 40.20138888888889)"/><path d="M679.53 340.67l-159.06 58.66" stroke="#3a414a" fill="none"/><path d="M679.7 341.15l-.26-.68.55.03 1.6-.06zM520.56 399.53l-.55-.03-1.6.06 1.9-.7z" stroke="#3a414a" stroke-width=".05" fill="#3a414a"/><path d="M680.47 340.67l159.06 58.66" stroke="#3a414a" fill="none"/><path d="M680 340.5l.55-.02-.24.67-2.04-.76zM841.74 399.6l-1.73-.1-.55.02.24-.67z" stroke="#3a414a" stroke-width=".05" fill="#3a414a"/><path d="M519.65 480.85L441.3 559.2" stroke="#3a414a" fill="none"/><path d="M520 480.5l.73-.03-.74.75-.72-.7.05-.06zM441.66 559.55l-.05.05-1.32-.08.67-.68z" stroke="#3a414a" stroke-width=".05" fill="#3a414a"/><path d="M520.36 480.85l79.28 78.3" stroke="#3a414a" fill="none"/><path d="M520 480.5l.7-.02.02.02-.7.72-.78-.77zM600.76 559.55l-.75-.05-.7.02-.02-.02.7-.72z" stroke="#3a414a" stroke-width=".05" fill="#3a414a"/><path d="M839.65 480.85l-82.43 82.43" stroke="#3a414a" fill="none"/><path d="M840 480.5l.73-.03-.74.75-.72-.7.05-.06zM757.55 563.6h-.46l-1.05.14.83-.82z" stroke="#3a414a" stroke-width=".05" fill="#3a414a"/><path d="M840.35 480.85l82.5 82.5" stroke="#3a414a" fill="none"/><path d="M840 480.5l.68-.02.04.03-.7.72-.77-.77zM923.95 563.75l-1.43-.1.67-.67z" stroke="#3a414a" stroke-width=".05" fill="#3a414a"/><path d="M560 760c0 22.1-17.9 40-40 40s-40-17.9-40-40 17.9-40 40-40 40 17.9 40 40z" stroke="#3a414a" fill="#fff"/><use xlink:href="#h" transform="matrix(1,0,0,1,485,725) translate(26.358024691358025 40.20138888888889)"/><path d="M720 760c0 22.1-17.9 40-40 40s-40-17.9-40-40 17.9-40 40-40 40 17.9 40 40z" stroke="#3a414a" fill="#ffe342"/><use xlink:href="#i" transform="matrix(1,0,0,1,645,725) translate(26.358024691358025 40.20138888888889)"/><path d="M600.35 640.85l78.33 78.33" stroke="#3a414a" fill="none"/><path d="M600 640.5l.68-.02.04.03-.7.72-.77-.77zM679.72 719.5l-1.37.06-.03-.04.7-.7z" stroke="#3a414a" stroke-width=".05" fill="#3a414a"/><path d="M599.65 640.85L521.3 719.2" stroke="#3a414a" fill="none"/><path d="M600 640.5l.73-.03-.74.75-.72-.7.05-.06zM521.66 719.55l-.05.05-1.32-.08.67-.68z" stroke="#3a414a" stroke-width=".05" fill="#3a414a"/><defs><path fill="#3a414a" d="M126-127c33 6 58 20 58 59 0 88-139 92-164 29-3-8-5-16-6-25l32-3c6 27 21 44 54 44 32 0 52-15 52-46 0-38-36-46-79-43v-28c39 1 72-4 72-42 0-27-17-43-46-43-28 0-47 15-49 41l-32-3c6-42 35-63 81-64 48-1 79 21 79 65 0 36-21 52-52 59" id="j"/><use transform="matrix(0.08641975308641976,0,0,0.08641975308641976,0,0)" xlink:href="#j" id="a"/><path fill="#3a414a" d="M54-142c48-35 137-8 131 61C196 18 31 33 14-55l32-4c7 23 22 37 52 37 35-1 51-22 54-58 4-55-73-65-99-34H22l8-134h141v27H59" id="k"/><use transform="matrix(0.08641975308641976,0,0,0.08641975308641976,0,0)" xlink:href="#k" id="b"/><path fill="#3a414a" d="M27 0v-27h64v-190l-56 39v-29l58-41h29v221h61V0H27" id="l"/><use transform="matrix(0.08641975308641976,0,0,0.08641975308641976,0,0)" xlink:href="#l" id="c"/><path fill="#3a414a" d="M110-160c48 1 74 30 74 79 0 53-28 85-80 85-65 0-83-55-86-122-5-90 50-162 133-122 14 7 22 21 27 39l-31 6c-5-40-67-38-82-6-9 19-15 44-15 74 11-20 30-34 60-33zm-7 138c34 0 49-23 49-58s-16-56-50-56c-29 0-50 16-49 49 1 36 15 65 50 65" id="m"/><use transform="matrix(0.08641975308641976,0,0,0.08641975308641976,0,0)" xlink:href="#m" id="d"/><path fill="#3a414a" d="M101-251c82-7 93 87 43 132L82-64C71-53 59-42 53-27h129V0H18c2-99 128-94 128-182 0-28-16-43-45-43s-46 15-49 41l-32-3c6-41 34-60 81-64" id="n"/><use transform="matrix(0.08641975308641976,0,0,0.08641975308641976,0,0)" xlink:href="#n" id="e"/><path fill="#3a414a" d="M101-251c68 0 85 55 85 127S166 4 100 4C33 4 14-52 14-124c0-73 17-127 87-127zm-1 229c47 0 54-49 54-102s-4-102-53-102c-51 0-55 48-55 102 0 53 5 102 54 102" id="o"/><use transform="matrix(0.08641975308641976,0,0,0.08641975308641976,0,0)" xlink:href="#o" id="f"/><path fill="#3a414a" d="M134-131c28 9 52 24 51 62-1 50-34 73-85 73S17-19 16-69c0-36 21-54 49-61-75-25-45-126 34-121 46 3 78 18 79 63 0 33-17 51-44 57zm-34-11c31 1 46-15 46-44 0-28-17-43-47-42-29 0-46 13-45 42 1 28 16 44 46 44zm1 122c35 0 51-18 51-52 0-30-18-46-53-46-33 0-51 17-51 47 0 34 19 51 53 51" id="p"/><use transform="matrix(0.08641975308641976,0,0,0.08641975308641976,0,0)" xlink:href="#p" id="g"/><path fill="#3a414a" d="M64 0c3-98 48-159 88-221H18v-27h164v26C143-157 98-101 97 0H64" id="q"/><use transform="matrix(0.08641975308641976,0,0,0.08641975308641976,0,0)" xlink:href="#q" id="h"/><path fill="#3a414a" d="M155-56V0h-30v-56H8v-25l114-167h33v167h35v25h-35zm-30-156c-27 46-58 90-88 131h88v-131" id="r"/><use transform="matrix(0.08641975308641976,0,0,0.08641975308641976,0,0)" xlink:href="#r" id="i"/></defs></g></svg>